<?xml version="1.0" encoding="UTF-8"?>
<svg xmlns="http://www.w3.org/2000/svg" xmlns:xlink="http://www.w3.org/1999/xlink" width="329px" height="153px" viewBox="0 0 328 153" version="1.1">
<g id="surface1">
<path style=" stroke:none;fill-rule:nonzero;fill:rgb(97.647059%,97.647059%,97.647059%);fill-opacity:1;" d="M 36.453125 89.03125 C 41.367188 79.558594 53.515625 49.25 61.855469 28.695312 C 64.886719 20.828125 66.882812 12.597656 67.789062 4.214844 L 328.351562 0.0234375 C 324.148438 18.652344 308.625 29.152344 283.734375 29.660156 C 236.144531 30.621094 188.546875 31.027344 140.949219 31.703125 C 125.835938 31.914062 110.734375 32.246094 93.867188 32.550781 C 82.425781 87.578125 52.328125 129.539062 0 153.175781 "/>
<path style=" stroke:none;fill-rule:nonzero;fill:rgb(97.647059%,97.647059%,97.647059%);fill-opacity:1;" d="M 243.636719 45.664062 C 234.199219 62.820312 222.917969 73.203125 206.847656 73.96875 C 170.820312 75.742188 134.707031 75.851562 98.347656 76.636719 C 103.503906 47.667969 103.792969 47.277344 129.117188 46.917969 C 166.296875 46.398438 203.480469 46.074219 243.644531 45.640625 "/>
<path style=" stroke:none;fill-rule:nonzero;fill:rgb(97.647059%,97.647059%,97.647059%);fill-opacity:1;" d="M 72.882812 118.734375 C 80.632812 96.054688 95.921875 88.441406 118.292969 91.242188 C 129.941406 91.921875 141.625 91.769531 153.253906 90.78125 C 145.90625 116.855469 119.789062 125.710938 72.882812 118.734375 "/>
</g>
</svg>
